<svg xmlns="http://www.w3.org/2000/svg" width="100" height="100" viewBox="0, 0, 100, 100"><path d="M71.31 66.505c-.003.027-.004.053-.004.08v15.432c-.077.905-.835 1.617-1.763 1.617-.014 0-.02.004-.032.005H54.253c-.02 0-.037 0-.056.002h-9.524c-1.266 0-2.29-1.025-2.29-2.29 0-1.265 1.024-2.292 2.29-2.292l.014.002h19.72c.016-.003.025-.007.04-.007 1.2 0 2.183-.92 2.283-2.093V57.02l-.002-.017c0-1.266 1.026-2.29 2.29-2.29s2.293 1.024 2.293 2.29v9.502zm-39.357 4.397c0-1.263 1.025-2.29 2.292-2.29H53.98c.015 0 .025-.005.04-.005 1.2 0 2.183-.92 2.28-2.093V46.57v-.015c0-1.265 1.028-2.29 2.293-2.29 1.264 0 2.29 1.025 2.29 2.29v9.5c-.002.03-.004.056-.004.082V71.57c-.078.905-.837 1.617-1.765 1.617-.012 0-.02.004-.03.006h-15.25l-.01-.002c-.02 0-.037.003-.055.005h-9.525c-1.267 0-2.292-1.026-2.292-2.293zm-1.744-26.14c-1.266 0-2.29-1.026-2.29-2.29v-9.498l.003-.09V17.45c.076-.906.835-1.618 1.762-1.618.008 0 .01 0 .015-.002h24.858c1.265 0 2.29 1.026 2.29 2.29 0 1.265-1.025 2.29-2.29 2.29H33.383c1.423.002 1.412.007 1.396.007-1.198 0-2.182.92-2.282 2.092V42.47c0 1.266-1.026 2.29-2.29 2.29zm37.034-16.245c0 1.265-1.027 2.29-2.293 2.29H45.217c-.016.002-.025.006-.043.006-1.198 0-2.18.92-2.28 2.094v19.957c0 1.265-1.025 2.29-2.288 2.29-1.266 0-2.292-1.025-2.292-2.29V43.37c0-.032.003-.06.003-.093v-15.43c.08-.907.837-1.62 1.764-1.62.006 0 .01 0 .014-.002H64.95c1.267 0 2.294 1.027 2.294 2.292zM52.147 6.474H27.268c-6.523 0-11.816 5.218-11.957 11.706l-.014.013v42.954C15.3 78.74 29.56 93 47.152 93H72.47l.022-.023c6.376-.244 11.475-5.46 11.506-11.89H84v-42.76C84 20.734 69.738 6.474 52.147 6.474" fill="#50285F"/></svg>